<svg id="visual" viewBox="0 0 900 600" width="900" height="600" xmlns="http://www.w3.org/2000/svg" xmlns:xlink="http://www.w3.org/1999/xlink" version="1.1"><rect x="0" y="0" width="900" height="600" fill="#ffffff"></rect><defs><linearGradient id="grad1_0" x1="33.3%" y1="0%" x2="100%" y2="100%"><stop offset="20%" stop-color="#bbc9c3" stop-opacity="1"></stop><stop offset="80%" stop-color="#bbc9c3" stop-opacity="1"></stop></linearGradient></defs><defs><linearGradient id="grad1_1" x1="33.3%" y1="0%" x2="100%" y2="100%"><stop offset="20%" stop-color="#bbc9c3" stop-opacity="1"></stop><stop offset="80%" stop-color="#ffffff" stop-opacity="1"></stop></linearGradient></defs><defs><linearGradient id="grad2_0" x1="0%" y1="0%" x2="66.7%" y2="100%"><stop offset="20%" stop-color="#bbc9c3" stop-opacity="1"></stop><stop offset="80%" stop-color="#bbc9c3" stop-opacity="1"></stop></linearGradient></defs><defs><linearGradient id="grad2_1" x1="0%" y1="0%" x2="66.7%" y2="100%"><stop offset="20%" stop-color="#ffffff" stop-opacity="1"></stop><stop offset="80%" stop-color="#bbc9c3" stop-opacity="1"></stop></linearGradient></defs><g transform="translate(900, 0)"><path d="M0 270.4C-38.7 269.9 -77.5 269.5 -103.5 249.8C-129.5 230.2 -142.8 191.5 -164.8 164.8C-186.7 138.1 -217.5 123.4 -236.5 98C-255.6 72.5 -263 36.3 -270.4 0L0 0Z" fill="#dde4e1"></path><path d="M0 135.2C-19.4 135 -38.7 134.7 -51.7 124.9C-64.7 115.1 -71.4 95.7 -82.4 82.4C-93.4 69 -108.7 61.7 -118.3 49C-127.8 36.3 -131.5 18.1 -135.2 0L0 0Z" fill="#bbc9c3"></path></g><g transform="translate(0, 600)"><path d="M0 -270.4C32.8 -259.3 65.6 -248.1 97.6 -235.6C129.5 -223.1 160.6 -209.1 187.4 -187.4C214.2 -165.6 236.7 -136 249.8 -103.5C263 -70.9 266.7 -35.5 270.4 0L0 0Z" fill="#dde4e1"></path><path d="M0 -135.2C16.4 -129.6 32.8 -124.1 48.8 -117.8C64.8 -111.5 80.3 -104.6 93.7 -93.7C107.1 -82.8 118.4 -68 124.9 -51.7C131.5 -35.5 133.3 -17.7 135.2 0L0 0Z" fill="#bbc9c3"></path></g></svg>