<svg id="visual" viewBox="0 0 400 2000" width="400" height="2000" xmlns="http://www.w3.org/2000/svg" xmlns:xlink="http://www.w3.org/1999/xlink" version="1.1"><rect x="0" y="0" width="400" height="2000" fill="#FFFFFF"></rect><defs><linearGradient id="grad1_0" x1="0%" y1="100%" x2="100%" y2="0%"><stop offset="30%" stop-color="#cccccc" stop-opacity="1"></stop><stop offset="70%" stop-color="#cccccc" stop-opacity="1"></stop></linearGradient></defs><defs><linearGradient id="grad1_1" x1="0%" y1="100%" x2="100%" y2="0%"><stop offset="30%" stop-color="#cccccc" stop-opacity="1"></stop><stop offset="70%" stop-color="#e5e5e5" stop-opacity="1"></stop></linearGradient></defs><defs><linearGradient id="grad1_2" x1="0%" y1="100%" x2="100%" y2="0%"><stop offset="30%" stop-color="#ffffff" stop-opacity="1"></stop><stop offset="70%" stop-color="#e5e5e5" stop-opacity="1"></stop></linearGradient></defs><defs><linearGradient id="grad2_0" x1="0%" y1="100%" x2="100%" y2="0%"><stop offset="30%" stop-color="#cccccc" stop-opacity="1"></stop><stop offset="70%" stop-color="#cccccc" stop-opacity="1"></stop></linearGradient></defs><defs><linearGradient id="grad2_1" x1="0%" y1="100%" x2="100%" y2="0%"><stop offset="30%" stop-color="#e5e5e5" stop-opacity="1"></stop><stop offset="70%" stop-color="#cccccc" stop-opacity="1"></stop></linearGradient></defs><defs><linearGradient id="grad2_2" x1="0%" y1="100%" x2="100%" y2="0%"><stop offset="30%" stop-color="#e5e5e5" stop-opacity="1"></stop><stop offset="70%" stop-color="#ffffff" stop-opacity="1"></stop></linearGradient></defs><g transform="translate(400, 2000)"><path d="M-400 0C-397.2 -55.9 -394.5 -111.9 -368.6 -152.7C-342.8 -193.5 -293.9 -219.1 -256.7 -256.7C-219.5 -294.2 -193.9 -343.7 -153.1 -369.6C-112.2 -395.4 -56.1 -397.7 0 -400L0 0Z" fill="#f2f2f2"></path><path d="M-266.7 0C-264.8 -37.3 -263 -74.6 -245.8 -101.8C-228.5 -129 -195.9 -146.1 -171.1 -171.1C-146.3 -196.2 -129.3 -229.1 -102 -246.4C-74.8 -263.6 -37.4 -265.1 0 -266.7L0 0Z" fill="#d9d9d9"></path><path d="M-133.3 0C-132.4 -18.6 -131.5 -37.3 -122.9 -50.9C-114.3 -64.5 -98 -73 -85.6 -85.6C-73.2 -98.1 -64.6 -114.6 -51 -123.2C-37.4 -131.8 -18.7 -132.6 0 -133.3L0 0Z" fill="#cccccc"></path></g><g transform="translate(0, 0)"><path d="M400 0C393.8 50.8 387.5 101.7 369.6 153.1C351.6 204.5 321.9 256.4 277.9 277.9C233.8 299.4 175.4 290.5 126.7 305.8C78 321.1 39 360.5 0 400L0 0Z" fill="#f2f2f2"></path><path d="M266.7 0C262.5 33.9 258.3 67.8 246.4 102C234.4 136.3 214.6 170.9 185.3 185.3C155.9 199.6 116.9 193.7 84.4 203.9C52 214.1 26 240.4 0 266.7L0 0Z" fill="#d9d9d9"></path><path d="M133.3 0C131.3 16.9 129.2 33.9 123.2 51C117.2 68.2 107.3 85.5 92.6 92.6C77.9 99.8 58.5 96.8 42.2 101.9C26 107 13 120.2 0 133.3L0 0Z" fill="#cccccc"></path></g></svg>