<svg id="visual" viewBox="0 0 900 600" width="900" height="600" xmlns="http://www.w3.org/2000/svg" xmlns:xlink="http://www.w3.org/1999/xlink" version="1.1">
  <g transform="translate(900)">
    <path d="M0 270.4c-38.7 -0.5 -77.5 -0.9 -103.5 -20.6 -26 -19.6 -39.3 -58.3 -61.3 -85 -21.9 -26.7 -52.7 -41.4 -71.7 -66.8 -19.1 -25.5 -26.5 -61.7 -33.9 -98H0Z" fill="#dde4e1"/>
    <path d="M0 135.2c-19.4 -0.2 -38.7 -0.5 -51.7 -10.3s-19.7 -29.2 -30.7 -42.5c-11 -13.4 -26.3 -20.7 -35.9 -33.4 -9.5 -12.7 -13.2 -30.9 -16.9 -49H0Z" fill="#bbc9c3"/>
  </g>
  <g transform="translate(0 600)">
    <path d="M0 -270.4c32.8 11.1 65.6 22.3 97.6 34.8 31.9 12.5 63 26.5 89.8 48.2 26.8 21.8 49.3 51.4 62.4 83.9 13.2 32.6 16.9 68 20.6 103.5H0Z" fill="#dde4e1"/>
    <path d="M0 -135.2c16.4 5.6 32.8 11.1 48.8 17.4 16 6.3 31.5 13.2 44.9 24.1 13.4 10.9 24.7 25.7 31.2 42 6.6 16.2 8.4 34 10.3 51.7H0Z" fill="#bbc9c3"/>
  </g>
  <g transform="rotate(90 -150 150) translate(300 0)">
    <path d="M0 -270.4c32.8 11.1 65.6 22.3 97.6 34.8 31.9 12.5 63 26.5 89.8 48.2 26.8 21.8 49.3 51.4 62.4 83.9 13.2 32.6 16.9 68 20.6 103.5H0Z" fill="#dde4e1"/>
    <path d="M0 -135.2c16.4 5.6 32.8 11.1 48.8 17.4 16 6.3 31.5 13.2 44.9 24.1 13.4 10.9 24.7 25.7 31.2 42 6.6 16.2 8.4 34 10.3 51.7H0Z" fill="#bbc9c3"/>
  </g>
</svg>
