<svg width="1920" height="1080" viewBox="0 0 1920 1080" xmlns="http://www.w3.org/2000/svg"><path d="M2142.3134095548894,1139C2133.1312897037647,1167.3736074895778,2131.2671369543987,1140.6192957099138,2128.7149020285838,1183.4205658991357C2126.162667102769,1226.2218360883576,2153.952483671431,1355.2110487851876,2127,1395.8076211353316C2100.047516328569,1436.4041934854756,2013.7233025544608,1454.49714859309,1967,1427C1920.2766974455392,1399.50285140691,1893.9614548624575,1269.6608651240003,1846.6601846732356,1230.8247295767908C1799.3589144840137,1191.9885940295812,1717.9690763102076,1213.7873083128738,1683.1923788646684,1193.983186716742C1648.4156814191292,1174.1790651206102,1641,1140.6068024112114,1638,1112C1635,1083.3931975887886,1636.232554468332,1051.3238696286542,1665.1923788646684,1022.3423722494739C1694.1522032610048,993.3608748702936,1765.624342855463,977.1680777664972,1811.7589463780182,938.1110157249182C1857.8935499005734,899.0539536833392,1895.9598243963364,807.4864394767083,1942,788C1988.0401756036636,768.5135605232917,2047.698729810778,783.6625587043902,2088,821.1923788646683C2128.301270189222,858.7221990249463,2174.7553862095165,960.2109841057799,2183.8076211353314,1013.1789209616685C2192.8598560611463,1066.146857817557,2151.495529406014,1110.6263925104222,2142.3134095548894,1139C2133.1312897037647,1167.3736074895778,2131.2671369543987,1140.6192957099138,2128.7149020285838,1183.4205658991357" fill="#c7c7c7"/></svg>