<svg width="1000" height="1080" viewBox="0 0 1920 1080" xmlns="http://www.w3.org/2000/svg"><path d="M2406.6844208804946,54.99999999999987C2427.074303184655,127.74068144944994,2435.2714389505136,226.43165640970108,2397.65810473637,291.5920650786358C2360.044770522227,356.75247374757055,2263.2075197230397,399.28508669546596,2181.004415595633,445.9624520136083C2098.8013114682262,492.63981733175063,1974.1454869734912,581.9361190392519,1904.4394799719287,571.6562569874898C1834.7334729703662,561.3763949357276,1836.1305887728483,448.9077238106587,1762.7683735862583,384.2832797030355C1689.4061583996684,319.65883559541226,1515.6832196413673,265.4417376825482,1464.266188852389,183.90959234175057C1412.8491580634106,102.37744700095293,1431.4442012146662,-14.629905862127742,1454.266188852389,-104.90959234175043C1477.0881764901117,-195.1892788213731,1535.6950278363693,-309.45453339098964,1601.1981146787252,-357.76852653598553C1666.7012015210812,-406.0825196809814,1748.1355820486478,-379.32883937420286,1847.2847099065252,-394.7935512117256C1946.4338377644026,-410.2582630492484,2124.7538649918433,-492.2137188267324,2196.09288182599,-450.55679756112227C2267.4318986601365,-408.8998762955121,2240.220221068989,-229.1114898782516,2275.318810911406,-144.85202361806458C2310.4174007538236,-60.59255735787755,2386.294538576334,-17.740681449450193,2406.6844208804946,54.99999999999987C2427.074303184655,127.74068144944994,2435.2714389505136,226.43165640970108,2397.65810473637,291.5920650786358" fill="#c7c7c7"/></svg>