<svg id="visual" viewBox="0 0 2000 1000" width="2000" height="1000" xmlns="http://www.w3.org/2000/svg" xmlns:xlink="http://www.w3.org/1999/xlink" version="1.1"><rect x="0" y="0" width="2000" height="1000" fill="#ffffff"></rect><defs><linearGradient id="grad1_0" x1="50%" y1="0%" x2="100%" y2="100%"><stop offset="10%" stop-color="#ffffff" stop-opacity="1"></stop><stop offset="90%" stop-color="#ffffff" stop-opacity="1"></stop></linearGradient></defs><defs><linearGradient id="grad2_0" x1="0%" y1="0%" x2="50%" y2="100%"><stop offset="10%" stop-color="#ffffff" stop-opacity="1"></stop><stop offset="90%" stop-color="#ffffff" stop-opacity="1"></stop></linearGradient></defs><g transform="translate(2000, 0)"><path d="M0 500C-89 487.8 -178 475.7 -250 433C-322 390.4 -376.9 317.2 -415.7 240C-454.5 162.8 -477.3 81.4 -500 0L0 0Z" fill="#000000"></path></g><g transform="translate(0, 1000)"><path d="M0 -500C82.2 -478.6 164.4 -457.3 241.5 -418.3C318.6 -379.3 390.8 -322.7 433 -250C475.3 -177.3 487.6 -88.7 500 0L0 0Z" fill="#000000"></path></g></svg>